<?xml version="1.0" encoding="iso-8859-1"?>
<!-- Uploaded to: SVG Repo, www.svgrepo.com, Generator: SVG Repo Mixer Tools -->
<!DOCTYPE svg PUBLIC "-//W3C//DTD SVG 1.1//EN" "http://www.w3.org/Graphics/SVG/1.1/DTD/svg11.dtd">
<svg fill="#000000" version="1.1" id="Capa_1" xmlns="http://www.w3.org/2000/svg" xmlns:xlink="http://www.w3.org/1999/xlink" 
	 width="800px" height="800px" viewBox="0 0 39.055 39.055"
	 xml:space="preserve">
<g>
	<g>
		<path d="M38.832,16.048c-0.191-0.233-0.478-0.369-0.775-0.369h-3.801c-0.939-2.475-2.16-4.899-3.549-5.814
			c-1.22-0.801-2.949-1.397-4.93-1.793V5.42c0-0.827-0.671-1.5-1.5-1.5h-9.5c-0.829,0-1.5,0.673-1.5,1.5v2.652
			c-1.979,0.396-3.71,0.992-4.927,1.793c-1.391,0.916-2.607,3.342-3.551,5.814h-3.8c-0.301,0-0.584,0.136-0.775,0.369
			c-0.189,0.232-0.264,0.538-0.203,0.834l0.564,2.727c0.096,0.465,0.506,0.797,0.979,0.797H2.69
			c-1.087,1.254-1.614,2.834-1.621,4.412c-0.007,1.952,0.733,3.717,2.089,4.965c0.014,0.012,0.03,0.021,0.044,0.035v3.816
			c0,0.827,0.673,1.5,1.5,1.5h3.505c0.829,0,1.5-0.673,1.5-1.5V31.79l19.641,0.074v1.771c0,0.828,0.672,1.5,1.5,1.5h3.507
			c0.827,0,1.5-0.672,1.5-1.5v-3.743c1.437-1.315,2.125-3.128,2.133-4.938c0.006-1.633-0.545-3.271-1.696-4.551h1.201
			c0.475,0,0.885-0.332,0.979-0.797l0.563-2.727C39.095,16.586,39.021,16.281,38.832,16.048z M10,12.37
			c1.896-1.248,5.648-1.875,9.418-1.887h0.223c3.771,0.012,7.521,0.64,9.416,1.887c0.744,0.489,1.701,2.461,2.578,4.877H7.424
			C8.299,14.832,9.256,12.86,10,12.37z M8.466,28.146c-1.631,0-2.951-1.321-2.951-2.95c0-1.632,1.32-2.951,2.951-2.951
			c1.629,0,2.951,1.319,2.951,2.951C11.417,26.824,10.095,28.146,8.466,28.146z M30.632,28.146c-1.629,0-2.951-1.321-2.951-2.95
			c0-1.632,1.322-2.951,2.951-2.951c1.631,0,2.951,1.319,2.951,2.951C33.583,26.824,32.261,28.146,30.632,28.146z"/>
	</g>
</g>
</svg>